<svg width="341" height="341" viewBox="0 0 341 341" fill="none" xmlns="http://www.w3.org/2000/svg">
<path d="M141.166 29.0909L29.0909 141.166C13.0244 157.232 15.2454 185.502 34.0515 204.308L136.205 306.462C155.012 325.269 183.281 327.489 199.348 311.423L311.423 199.348C327.489 183.281 325.269 155.012 306.462 136.205L204.308 34.0515C185.502 15.2454 157.232 13.0244 141.166 29.0909Z" fill="#03396C" stroke="black" stroke-width="0.607759" stroke-miterlimit="22.9256"/>
<path fill-rule="evenodd" clip-rule="evenodd" d="M205.914 117.464L243.3 223.05H216.124L189.849 143.334L183.14 163.806L193.123 192H173.899H166.706H147.5C147.394 192.2 147.285 192.404 147.175 192.612L157.394 163.749L150.666 143.334L124.54 223.05H97.2137L134.6 117.464H166.731L170.257 127.423L173.783 117.464H205.914Z" fill="white"/>
<path fill-rule="evenodd" clip-rule="evenodd" d="M137 163L157.775 223L183.246 222.942L204 163H177.113L170.555 183.345L164.035 163H137Z" fill="#008DE9"/>
</svg>
