<svg width="28" height="27" viewBox="0 0 28 27" fill="none" xmlns="http://www.w3.org/2000/svg">
<path d="M0 3.5C0 2.57174 0.368749 1.6815 1.02513 1.02513C1.6815 0.368749 2.57174 0 3.5 0L24.5 0C25.4283 0 26.3185 0.368749 26.9749 1.02513C27.6313 1.6815 28 2.57174 28 3.5V17.5C28 18.4283 27.6313 19.3185 26.9749 19.9749C26.3185 20.6313 25.4283 21 24.5 21H7.7245C7.26041 21.0001 6.81536 21.1845 6.48725 21.5128L1.4945 26.5055C1.37223 26.6281 1.21634 26.7116 1.04656 26.7456C0.876787 26.7795 0.700755 26.7623 0.540749 26.6962C0.380742 26.6301 0.243953 26.5179 0.147695 26.374C0.051437 26.2301 3.6776e-05 26.0609 0 25.8878L0 3.5ZM8.75 10.5C8.75 10.0359 8.56563 9.59075 8.23744 9.26256C7.90925 8.93437 7.46413 8.75 7 8.75C6.53587 8.75 6.09075 8.93437 5.76256 9.26256C5.43437 9.59075 5.25 10.0359 5.25 10.5C5.25 10.9641 5.43437 11.4092 5.76256 11.7374C6.09075 12.0656 6.53587 12.25 7 12.25C7.46413 12.25 7.90925 12.0656 8.23744 11.7374C8.56563 11.4092 8.75 10.9641 8.75 10.5ZM15.75 10.5C15.75 10.0359 15.5656 9.59075 15.2374 9.26256C14.9092 8.93437 14.4641 8.75 14 8.75C13.5359 8.75 13.0908 8.93437 12.7626 9.26256C12.4344 9.59075 12.25 10.0359 12.25 10.5C12.25 10.9641 12.4344 11.4092 12.7626 11.7374C13.0908 12.0656 13.5359 12.25 14 12.25C14.4641 12.25 14.9092 12.0656 15.2374 11.7374C15.5656 11.4092 15.75 10.9641 15.75 10.5ZM21 12.25C21.4641 12.25 21.9092 12.0656 22.2374 11.7374C22.5656 11.4092 22.75 10.9641 22.75 10.5C22.75 10.0359 22.5656 9.59075 22.2374 9.26256C21.9092 8.93437 21.4641 8.75 21 8.75C20.5359 8.75 20.0908 8.93437 19.7626 9.26256C19.4344 9.59075 19.25 10.0359 19.25 10.5C19.25 10.9641 19.4344 11.4092 19.7626 11.7374C20.0908 12.0656 20.5359 12.25 21 12.25V12.25Z" fill="white"/>
</svg>
