<svg width="150" height="55" viewBox="0 0 150 55" fill="none" xmlns="http://www.w3.org/2000/svg">
<path d="M22.4225 4.62075L4.62074 22.4225C2.06878 24.9745 2.42155 29.4648 5.40868 32.452L21.6346 48.6779C24.6217 51.665 29.1121 52.0178 31.664 49.4658L49.4658 31.664C52.0178 29.1121 51.665 24.6217 48.6779 21.6346L32.4519 5.40869C29.4648 2.42156 24.9745 2.06879 22.4225 4.62075Z" fill="#03396C" stroke="black" stroke-width="0.607759" stroke-miterlimit="22.9256"/>
<path d="M38.6453 35.4288L32.707 18.6578H27.6033L21.665 35.4288H26.0054L30.1552 22.7669L34.3287 35.4288H38.6453V35.4288ZM32.4215 35.4288L26.4832 18.6578H21.3796L15.4412 35.4288H19.7816L23.9314 22.7669L28.1049 35.4288H32.4215Z" fill="white"/>
<path d="M23.4286 30.4969C22.555 32.1382 20.8078 35.4527 20.8078 35.5797L32.9589 35.9768L30.8146 30.4969H23.4286Z" fill="white"/>
<path fill-rule="evenodd" clip-rule="evenodd" d="M21.7608 25.8906L25.0606 35.4209L29.1064 35.4117L32.4029 25.8906H28.1322L27.0907 29.1221L26.0551 25.8906H21.7608Z" fill="#008DE9"/>
<path d="M85.6531 12.8368V32.27H80.9194V20.6156L76.5732 32.27H72.753L68.3792 20.5879V32.27H63.6454V12.8368H69.2373L74.6908 26.2905L80.0889 12.8368H85.6531Z" fill="#03396C"/>
<path d="M88.116 24.5188C88.116 22.9317 88.4113 21.5383 89.0018 20.3388C89.6109 19.1392 90.4321 18.2164 91.4656 17.5705C92.4991 16.9246 93.6525 16.6016 94.9259 16.6016C96.0148 16.6016 96.9652 16.8231 97.7772 17.266C98.6077 17.7089 99.2444 18.2902 99.6873 19.01V16.8231H104.421V32.27H99.6873V30.083C99.226 30.8028 98.58 31.3841 97.7495 31.827C96.9375 32.27 95.9871 32.4914 94.8982 32.4914C93.6433 32.4914 92.4991 32.1685 91.4656 31.5225C90.4321 30.8581 89.6109 29.9262 89.0018 28.7266C88.4113 27.5085 88.116 26.106 88.116 24.5188ZM99.6873 24.5465C99.6873 23.3654 99.3551 22.4334 98.6908 21.7506C98.0448 21.0677 97.2513 20.7263 96.31 20.7263C95.3688 20.7263 94.566 21.0677 93.9017 21.7506C93.2557 22.4149 92.9328 23.3377 92.9328 24.5188C92.9328 25.6999 93.2557 26.6412 93.9017 27.3425C94.566 28.0253 95.3688 28.3667 96.31 28.3667C97.2513 28.3667 98.0448 28.0253 98.6908 27.3425C99.3551 26.6596 99.6873 25.7276 99.6873 24.5465Z" fill="#03396C"/>
<path d="M117.258 16.657C119.066 16.657 120.506 17.2475 121.576 18.4287C122.665 19.5913 123.21 21.1969 123.21 23.2454V32.27H118.503V23.8821C118.503 22.8486 118.236 22.0458 117.701 21.4737C117.166 20.9016 116.446 20.6156 115.541 20.6156C114.637 20.6156 113.917 20.9016 113.382 21.4737C112.847 22.0458 112.579 22.8486 112.579 23.8821V32.27H107.846V16.8231H112.579V18.8716C113.059 18.1887 113.705 17.6535 114.517 17.266C115.329 16.86 116.243 16.657 117.258 16.657Z" fill="#03396C"/>
<path d="M128.852 15.2175C128.022 15.2175 127.339 14.9776 126.804 14.4977C126.287 13.9994 126.028 13.3904 126.028 12.6707C126.028 11.9325 126.287 11.3235 126.804 10.8436C127.339 10.3453 128.022 10.0962 128.852 10.0962C129.664 10.0962 130.328 10.3453 130.845 10.8436C131.38 11.3235 131.648 11.9325 131.648 12.6707C131.648 13.3904 131.38 13.9994 130.845 14.4977C130.328 14.9776 129.664 15.2175 128.852 15.2175ZM131.233 34.2631C131.233 36.164 130.753 37.5296 129.793 38.3601C128.834 39.2091 127.496 39.6335 125.779 39.6335H123.925V35.6195H125.06C125.576 35.6195 125.945 35.518 126.167 35.315C126.388 35.112 126.499 34.7798 126.499 34.3185V16.8231H131.233V34.2631Z" fill="#03396C"/>
<path d="M133.695 24.5188C133.695 22.9317 133.99 21.5383 134.581 20.3388C135.19 19.1392 136.011 18.2164 137.045 17.5705C138.078 16.9246 139.231 16.6016 140.505 16.6016C141.594 16.6016 142.544 16.8231 143.356 17.266C144.187 17.7089 144.823 18.2902 145.266 19.01V16.8231H150V32.27H145.266V30.083C144.805 30.8028 144.159 31.3841 143.329 31.827C142.516 32.27 141.566 32.4914 140.477 32.4914C139.222 32.4914 138.078 32.1685 137.045 31.5225C136.011 30.8581 135.19 29.9262 134.581 28.7266C133.99 27.5085 133.695 26.106 133.695 24.5188ZM145.266 24.5465C145.266 23.3654 144.934 22.4334 144.27 21.7506C143.624 21.0677 142.83 20.7263 141.889 20.7263C140.948 20.7263 140.145 21.0677 139.481 21.7506C138.835 22.4149 138.512 23.3377 138.512 24.5188C138.512 25.6999 138.835 26.6412 139.481 27.3425C140.145 28.0253 140.948 28.3667 141.889 28.3667C142.83 28.3667 143.624 28.0253 144.27 27.3425C144.934 26.6596 145.266 25.7276 145.266 24.5465Z" fill="#03396C"/>
<path d="M74.3442 33.3519L70.5383 44.0817H67.2674L63.4615 33.3519H66.2433L68.9029 41.4528L71.5777 33.3519H74.3442Z" fill="#008DE9"/>
<path d="M83.4762 39.6798C83.4762 39.9243 83.4609 40.179 83.4304 40.444H77.5152C77.556 40.9738 77.7241 41.3814 78.0196 41.6667C78.3253 41.9419 78.6973 42.0794 79.1354 42.0794C79.7876 42.0794 80.241 41.8043 80.4957 41.2541H83.2775C83.1349 41.8145 82.875 42.3189 82.498 42.7672C82.1312 43.2156 81.6676 43.5671 81.1071 43.8219C80.5467 44.0766 79.92 44.204 79.2271 44.204C78.3916 44.204 77.6477 44.0257 76.9956 43.669C76.3434 43.3124 75.8339 42.8029 75.4671 42.1406C75.1003 41.4782 74.9169 40.7038 74.9169 39.8173C74.9169 38.9308 75.0952 38.1564 75.4518 37.4941C75.8187 36.8317 76.3281 36.3222 76.9803 35.9656C77.6324 35.609 78.3814 35.4306 79.2271 35.4306C80.0525 35.4306 80.7861 35.6039 81.4281 35.9503C82.0701 36.2968 82.5693 36.791 82.926 37.4329C83.2928 38.0749 83.4762 38.8238 83.4762 39.6798ZM80.8014 38.9919C80.8014 38.5436 80.6486 38.187 80.3429 37.922C80.0372 37.6571 79.6551 37.5246 79.1966 37.5246C78.7584 37.5246 78.3865 37.652 78.0808 37.9067C77.7853 38.1615 77.6019 38.5232 77.5305 38.9919H80.8014Z" fill="#008DE9"/>
<path d="M90.0518 35.4612C91.0504 35.4612 91.8452 35.7873 92.4362 36.4394C93.0374 37.0814 93.338 37.9679 93.338 39.0989V44.0817H90.7396V39.4505C90.7396 38.8799 90.5919 38.4366 90.2964 38.1207C90.0009 37.8048 89.6035 37.6469 89.1042 37.6469C88.6049 37.6469 88.2075 37.8048 87.912 38.1207C87.6165 38.4366 87.4687 38.8799 87.4687 39.4505V44.0817H84.8551V35.5529H87.4687V36.684C87.7337 36.307 88.0903 36.0114 88.5387 35.7975C88.987 35.5733 89.4914 35.4612 90.0518 35.4612Z" fill="#008DE9"/>
<path d="M94.6346 39.802C94.6346 38.9257 94.7976 38.1564 95.1237 37.4941C95.4599 36.8317 95.9134 36.3222 96.484 35.9656C97.0546 35.609 97.6915 35.4306 98.3946 35.4306C98.955 35.4306 99.4645 35.5478 99.923 35.7822C100.392 36.0165 100.759 36.3324 101.024 36.7298V32.7711H103.637V44.0817H101.024V42.8589C100.779 43.2665 100.427 43.5926 99.9689 43.8372C99.5205 44.0817 98.9958 44.204 98.3946 44.204C97.6915 44.204 97.0546 44.0257 96.484 43.669C95.9134 43.3022 95.4599 42.7876 95.1237 42.1253C94.7976 41.4528 94.6346 40.6783 94.6346 39.802ZM101.024 39.8173C101.024 39.1652 100.84 38.6506 100.473 38.2736C100.117 37.8965 99.6785 37.708 99.1588 37.708C98.6391 37.708 98.1959 37.8965 97.8291 38.2736C97.4724 38.6404 97.2941 39.1499 97.2941 39.802C97.2941 40.4542 97.4724 40.9738 97.8291 41.3611C98.1959 41.7381 98.6391 41.9266 99.1588 41.9266C99.6785 41.9266 100.117 41.7381 100.473 41.3611C100.84 40.984 101.024 40.4695 101.024 39.8173Z" fill="#008DE9"/>
<path d="M105.008 39.802C105.008 38.9257 105.171 38.1564 105.497 37.4941C105.834 36.8317 106.287 36.3222 106.858 35.9656C107.428 35.609 108.065 35.4306 108.768 35.4306C109.37 35.4306 109.894 35.5529 110.343 35.7975C110.801 36.042 111.153 36.363 111.397 36.7604V35.5529H114.011V44.0817H111.397V42.8742C111.143 43.2716 110.786 43.5926 110.327 43.8372C109.879 44.0817 109.354 44.204 108.753 44.204C108.06 44.204 107.428 44.0257 106.858 43.669C106.287 43.3022 105.834 42.7876 105.497 42.1253C105.171 41.4528 105.008 40.6783 105.008 39.802ZM111.397 39.8173C111.397 39.1652 111.214 38.6506 110.847 38.2736C110.49 37.8965 110.052 37.708 109.533 37.708C109.013 37.708 108.57 37.8965 108.203 38.2736C107.846 38.6404 107.668 39.1499 107.668 39.802C107.668 40.4542 107.846 40.9738 108.203 41.3611C108.57 41.7381 109.013 41.9266 109.533 41.9266C110.052 41.9266 110.49 41.7381 110.847 41.3611C111.214 40.984 111.397 40.4695 111.397 39.8173Z" fill="#008DE9"/>
<path d="M119.371 44.204C118.628 44.204 117.965 44.0766 117.384 43.8219C116.804 43.5671 116.345 43.2207 116.009 42.7825C115.673 42.3342 115.484 41.8349 115.443 41.2846H118.026C118.057 41.5801 118.195 41.8196 118.439 42.003C118.684 42.1864 118.984 42.2781 119.341 42.2781C119.667 42.2781 119.917 42.217 120.09 42.0947C120.273 41.9622 120.365 41.7941 120.365 41.5903C120.365 41.3458 120.238 41.1675 119.983 41.0554C119.728 40.9331 119.315 40.8006 118.745 40.658C118.133 40.5153 117.624 40.3676 117.216 40.2147C116.809 40.0517 116.457 39.802 116.162 39.4658C115.866 39.1193 115.718 38.6557 115.718 38.0749C115.718 37.5858 115.851 37.1425 116.116 36.7451C116.391 36.3375 116.788 36.0165 117.308 35.7822C117.838 35.5478 118.465 35.4306 119.188 35.4306C120.258 35.4306 121.099 35.6956 121.71 36.2254C122.332 36.7553 122.688 37.4584 122.78 38.3347H120.365C120.324 38.0392 120.192 37.8048 119.968 37.6316C119.754 37.4584 119.468 37.3718 119.112 37.3718C118.806 37.3718 118.572 37.4329 118.409 37.5552C118.246 37.6673 118.164 37.8252 118.164 38.029C118.164 38.2736 118.291 38.457 118.546 38.5793C118.811 38.7015 119.219 38.8238 119.769 38.9461C120.401 39.1091 120.915 39.2722 121.313 39.4352C121.71 39.588 122.056 39.8428 122.352 40.1994C122.658 40.5459 122.816 41.0146 122.826 41.6056C122.826 42.1049 122.683 42.5533 122.398 42.9507C122.123 43.3379 121.72 43.6436 121.19 43.8677C120.671 44.0919 120.064 44.204 119.371 44.204Z" fill="#008DE9"/>
</svg>
